<?xml version="1.0" encoding="utf-8"?>
<!-- Generator: Adobe Illustrator 16.0.0, SVG Export Plug-In . SVG Version: 6.00 Build 0)  -->
<!DOCTYPE svg PUBLIC "-//W3C//DTD SVG 1.1//EN" "http://www.w3.org/Graphics/SVG/1.1/DTD/svg11.dtd">
<svg version="1.1" id="Слой_1" xmlns="http://www.w3.org/2000/svg" xmlns:xlink="http://www.w3.org/1999/xlink" x="0px" y="0px"
	 width="1200px" height="480px" viewBox="0 0 1200 480" enable-background="new 0 0 1200 480" xml:space="preserve">
<path fill-rule="evenodd" clip-rule="evenodd" fill="#FFFFFF" d="M701.029,306.477c0,1.432,0.52,3.008-0.656,4.289
	c-10.051,0.195-20.105,0.277-30.154-0.043c-0.961-1.229-0.568-2.67-0.574-4.02c-0.02-20.426-0.02-40.855,0-61.275
	c0.006-7.959-2.133-15.271-6.965-21.591c-9.674-12.633-22.518-17.961-38.125-14.691c-15.408,3.225-25.176,12.925-29.089,28.284
	c-1.532,6.04-0.96,12.094,0.182,18.133c2.088,6.654,5.558,12.455,10.625,17.289c8.176,7.781,17.994,10.773,29.084,10.045
	c2.992-0.199,5.961-0.67,8.775-1.748c1.594-0.604,2.363-0.07,2.947,1.377c3.152,7.949,6.371,15.875,9.518,23.816
	c0.805,2.049,0.717,2.221-1.348,3.152c-5.006,2.25-10.27,3.664-15.701,4.363c-12.889,1.67-25.449,0.467-37.293-5.111
	c-21.225-9.992-33.276-27.098-37.85-49.805c-0.16-0.826-0.137-1.697-0.193-2.553c-0.953-2.885-0.96-5.922-0.987-8.873
	c-0.166-20.639,6.315-38.688,21.435-53.135c10.559-10.091,23.239-15.697,37.809-17.206c16.336-1.693,31.184,2.087,44.611,11.533
	c0.434,0.306,0.891,0.594,1.357,0.838c0.166,0.089,0.404,0.034,0.906,0.056c0.615-1.997,0.215-4.123,0.32-6.188
	c0.133-2.741,0.25-2.969,2.938-2.981c8.447-0.037,16.895-0.037,25.342,0c2.848,0.012,3.021,0.223,3.061,3.171
	c0.047,3.208,0.016,6.416,0.016,9.625C701.029,230.98,701.049,268.729,701.029,306.477z M904.455,236.185
	c0.965-0.311,1.547-1.109,2.225-1.781c17.168-17.177,34.324-34.355,51.463-51.552c0.566-0.566,1.434-0.994,1.355-1.97
	c-0.334-0.444-0.766-0.451-1.182-0.451c-13.365-0.01-26.736,0-40.113-0.027c-1.383,0-2.459,0.455-3.414,1.449
	c-1.693,1.776-3.463,3.492-5.199,5.234c-11.025,11.056-22.047,22.119-33.098,33.153c-0.828,0.826-1.459,2.113-2.947,2.07
	c-0.627-1.494-0.365-2.896-0.365-4.263c-0.035-27.919-0.035-55.831-0.051-83.75c0-0.965,0.027-1.932-0.012-2.885
	c-0.096-2.732-0.238-2.948-2.969-2.958c-8.336-0.044-16.686-0.044-25.027,0c-2.797,0.016-2.992,0.277-3.063,3.236
	c-0.096,4.273-0.229,8.553-0.229,12.827c-0.027,54.232-0.039,108.46-0.047,162.687c0,1.16-0.197,2.369,0.473,3.447
	c0.641,0.082,1.268,0.232,1.904,0.238c8.66,0.018,17.33,0.01,25.988,0.018c0.322,0,0.643-0.029,0.965-0.029
	c1.287,0,2.016-0.572,2.016-1.92c0-0.961,0.039-1.928,0.039-2.881c0-11.346-0.012-22.684,0-34.023c0-1.127-0.223-2.305,0.314-3.525
	c1.383,0.361,2.016,1.416,2.809,2.211c12.645,12.619,25.277,25.252,37.887,37.902c1.324,1.32,2.605,2.32,4.68,2.303
	c12.938-0.076,25.883-0.033,38.826-0.055c0.67,0,1.537,0.299,1.838-0.457c-21.553-21.518-43.021-42.959-64.746-64.648
	C898.256,242.336,901.352,239.267,904.455,236.185z M818.9,280.09c-2.115-2.115-4.213-4.258-6.361-6.34
	c-1.586-1.549-1.604-1.492-3.391-0.043c-1.486,1.209-2.951,2.48-4.551,3.529c-16.219,10.59-42.404,7.521-54.059-14.959
	c-1.111-2.137-2.604-4.168-2.754-6.721c-1.145-6.033-1.555-12.055-0.213-18.145c6.053-27.263,39.475-38.453,60.943-20.364
	c2.445,2.059,2.467,2.076,4.586-0.049c5.9-5.894,11.795-11.795,17.672-17.717c2.254-2.271,2.238-2.336-0.082-4.518
	c-1.012-0.955-2.037-1.898-3.137-2.748c-17.219-13.478-36.635-18.077-57.969-13.644c-30.193,6.272-54.398,33.16-54.26,68.104
	c0.016,3.291,0.082,6.627,1.066,9.84c0.055,0.961,0.01,1.938,0.197,2.869c3.322,16.213,11.447,29.617,24.266,39.975
	c15.531,12.537,33.426,17.311,53.164,14.676c14.064-1.883,26.352-7.809,36.809-17.434c2.199-2.016,2.188-2.137,0.072-4.275
	C826.92,288.098,822.902,284.102,818.9,280.09z M557.862,176.608c-6.483,0.184-12.722,1.56-18.649,4.213
	c-4.607,2.06-8.959,4.551-13.049,7.51c-0.728,0.521-1.339,1.438-2.625,1.076c-0.468-1.87-0.178-3.796-0.234-5.688
	c-0.111-3.13-0.184-3.288-3.291-3.297c-8.236-0.027-16.474-0.027-24.711-0.006c-3.124,0.016-3.246,0.179-3.335,3.247
	c-0.011,0.322,0,0.645,0,0.96c-0.017,40.862-0.022,81.724-0.033,122.581c0,1.16-0.2,2.363,0.472,3.441
	c0.639,0.088,1.266,0.238,1.903,0.244c8.659,0.018,17.317,0.018,25.981,0.018c0.316,0,0.639-0.029,0.961-0.029
	c1.271,0,2.02-0.549,2.025-1.902c0.006-0.533,0.039-1.072,0.039-1.605c-0.012-21.707-0.022-43.41-0.033-65.117
	c0.166-0.727,0.41-1.436,0.499-2.175c1.776-15.142,15.342-31.126,34.136-32.097c2.863-0.15,3.059-0.378,3.068-3.265
	c0.033-8.341,0.033-16.683-0.005-25.026C560.968,176.752,560.748,176.531,557.862,176.608z M480.779,307.285
	c-2.021-8.086-4.036-16.18-6.063-24.248c-0.898-3.574-0.92-3.58-4.756-3.586c-5.556-0.012-11.117-0.016-16.668-0.012
	c-5.461,0.006-9.025-2.736-11.134-7.621c-0.212-0.494-0.378-0.998-0.556-1.504c-0.012-12.615-0.017-25.23-0.021-37.852
	c0-0.961,0.044-1.927,0.021-2.887c-0.021-1.498,0.766-2.115,2.188-2.104c0.854,0.012,1.709-0.021,2.563-0.021
	c6.1-0.006,12.194,0.027,18.288-0.023c2.644-0.027,2.814-0.249,2.193-2.819c-2.131-8.72-4.363-17.423-6.482-26.148
	c-0.422-1.743-1.277-2.525-3.103-2.486c-3.415,0.083-6.833,0.027-10.264,0.016c-5.783-0.027-5.405,0.472-5.417-5.344
	c-0.012-13.688,0-27.375-0.033-41.063c0-3.063-0.166-3.195-3.119-2.469c-8.404,2.07-16.807,4.179-25.199,6.311
	c-2.946,0.744-2.959,0.788-2.986,3.936c-0.033,3.635-0.01,7.276-0.016,10.906c-0.012,32.831-0.027,65.659-0.018,98.49
	c0.006,2.332-0.311,4.713,0.588,6.979c0.09,0.955,0.067,1.936,0.278,2.869c4.574,20.918,22.323,34.102,40.629,34.264
	c8.869,0.07,17.739,0.025,26.608,0.025c0.532,0.006,1.064-0.021,1.598-0.049c1.083-0.061,1.543-0.605,1.3-1.688
	C481.055,308.535,480.927,307.902,480.779,307.285z M1002.652,174.171c-0.006-13.693-0.006-27.385-0.018-41.083
	c0-4.663-0.006-4.668-4.807-4.674c-7.281,0-14.547,0-21.83,0c-4.713,0.005-4.723,0.011-4.723,4.761
	c-0.01,25.033-0.021,50.071-0.021,75.103c-0.018,32.741-0.033,65.478-0.006,98.214c0,1.438-0.512,3.014,0.666,4.291
	c10.051,0.166,20.109,0.244,30.166-0.039c1.037-1.332,0.578-2.893,0.578-4.34C1002.674,262.328,1002.658,218.252,1002.652,174.171z
	 M1167.566,180.826c-0.469-0.371-1.008-0.395-1.533-0.395c-9.941,0-19.881,0.04-29.816-0.043c-2.021-0.022-2.803,1.065-3.514,2.614
	c-7.615,16.497-15.258,32.97-22.889,49.455v0.006c-1.51,3.168-3.043,6.326-4.52,9.512c-4.488,9.691-8.953,19.395-13.455,29.078
	c-0.277,0.617-0.443,1.5-1.775,1.35c-0.889-1.871-1.854-3.881-2.797-5.906c-12.822-27.634-25.654-55.265-38.42-82.933
	c-1.016-2.214-2.197-3.247-4.783-3.203c-9.199,0.161-18.396,0.055-27.586,0.071c-0.928,0-1.926-0.232-2.936,0.562
	c0.205,1.755,1.176,3.308,1.926,4.923c14.707,31.715,29.426,63.42,44.146,95.129c0.449,0.959,0.766,1.998,1.514,2.797
	c2.787,6.943,6.18,13.615,9.291,20.408c3.133,6.854,3.232,6.859-0.309,13.531c-4.08,7.678-10.52,12.15-19.055,13.688
	c-2.764,0.494-5.533,0.389-8.309,0.422c-3.27,0.039-3.293,0.039-4.08,3.188c-2.004,7.98-3.98,15.961-5.961,23.943
	c-0.205,0.832-0.389,1.664-0.6,2.492c-0.322,1.275,0.25,1.809,1.477,1.803c7.254-0.027,14.559,0.506,21.746-0.826
	c20.438-3.764,35.473-14.887,44.264-33.758c7.027-15.086,14.354-30.055,20.527-45.535c0.955-1.164,1.547-2.537,2.152-3.893
	c3.23-7.143,6.406-14.313,9.695-21.422c3.52-7.6,7.16-15.141,10.748-22.708c0.467-0.831,0.986-1.642,1.385-2.514
	c7.605-16.378,15.193-32.763,22.764-49.158C1167.254,182.665,1167.947,181.863,1167.566,180.826z M352.712,200.542
	c-0.65,2.783,0.184,5.65-0.473,8.432c-0.032,0.707-0.061,1.42-0.097,2.127c-0.583,1.277,0.143,2.713-0.456,3.99
	c-0.02,0.33-0.049,0.663-0.078,0.998c-0.609,1.089,0.103,2.358-0.476,3.457c-0.044,0.731-0.032,1.48-0.142,2.209
	c-2.453,15.624-7.055,30.577-13.981,44.806c-0.407,0.83-0.825,1.668-1.394,2.387c-0.291,0.371-0.604,0.656-0.912,0.867
	c-7.106,13.9-16.247,26.66-27.417,38.27c-7.993,8.303-15.636,16.926-23.214,25.604c-0.944,1.869-2.262,3.639-4.04,5.262
	c-0.647,0.895-1.272,1.807-1.972,2.672c-4.288,5.322-8.689,10.557-12.871,15.949c-7.586,9.797-14.396,20.104-20.57,30.855
	c-5.154,8.98-12.289,16.174-21.226,21.473c-9.6,5.678-19.851,7.938-30.418,7.754c-10.564,0.184-20.823-2.076-30.422-7.754
	c-8.933-5.299-16.072-12.492-21.224-21.473c-6.174-10.752-12.978-21.059-20.568-30.855c-0.384-0.494-0.789-0.975-1.177-1.471
	c-0.312-0.797-0.814-3.385-0.19-8.168c2.1-16.092,13.196-39.031,31.688-62.502c11.481,5.273,24.292,8.32,38.468,9.027
	c1.143,0.061,2.291,0.08,3.421,0.113c1.143-0.033,2.286-0.053,3.429-0.113c15.729-0.789,29.8-4.426,42.211-10.824
	c0.154-0.078,0.296-0.158,0.443-0.236c1.375-0.721,2.725-1.488,4.059-2.273c0.521-0.305,1.034-0.615,1.546-0.932
	c13.406-8.254,24.723-19.984,33.953-35.107c6.041-9.893,9.75-20.73,11.796-32.136c0.146-0.818,0.362-1.619,0.546-2.432
	c0.646-1.066-0.127-2.345,0.5-3.41c0.021-0.35,0.049-0.699,0.064-1.044c0.668-1.651-0.171-3.438,0.488-5.097
	c0-3.629,0-7.26,0-10.889c-0.659-1.648,0.168-3.437-0.484-5.089c-0.02-0.357-0.04-0.707-0.061-1.057
	c-0.635-1.066,0.135-2.328-0.504-3.39c-0.029-0.33-0.055-0.662-0.078-0.987c-0.479-0.72,0.065-1.644-0.479-2.343
	c-0.053-0.158-0.077-0.321-0.065-0.484c-0.512-1.964-1.029-3.93-1.533-5.898c-9.783-38.62-42.695-68.304-82.181-73.44
	c-4.616-0.597-9.132-0.884-13.586-0.926c-4.491,0.038-9.05,0.325-13.708,0.926c-39.485,5.136-72.397,34.82-82.18,73.436
	c-0.5,1.972-1.021,3.938-1.534,5.902c0.009,0.163-0.008,0.329-0.066,0.484c-0.542,0.704,0,1.624-0.482,2.343
	c-0.022,0.329-0.047,0.658-0.078,0.987c-0.637,1.062,0.136,2.328-0.504,3.39c-0.017,0.35-0.039,0.707-0.059,1.057
	c-0.653,1.652,0.171,3.441-0.48,5.089c0,3.629,0,7.26,0,10.889c0.651,1.66-0.181,3.446,0.481,5.097
	c0.019,0.345,0.043,0.695,0.074,1.044c0.624,1.065-0.152,2.344,0.5,3.41c0.182,0.813,0.395,1.614,0.539,2.432
	c0.729,4.063,1.681,8.055,2.864,11.955c-10.007,13.624-18.327,27.352-24.599,40.754c-4.128,8.813-7.277,17.273-9.509,25.307
	c-4.914-6.732-9.274-13.777-13.043-21.148c-0.317-0.211-0.624-0.496-0.913-0.867c-0.565-0.719-0.99-1.557-1.39-2.387
	c-6.933-14.229-11.533-29.186-13.992-44.811c-0.11-0.724-0.096-1.473-0.143-2.204c-0.574-1.099,0.139-2.368-0.469-3.457
	c-0.029-0.334-0.057-0.668-0.082-0.998c-0.594-1.277,0.132-2.713-0.456-3.99c-0.032-0.707-0.061-1.42-0.093-2.127
	c-0.658-2.782,0.18-5.649-0.471-8.432c-0.161-2.233-0.161-4.466,0-6.704c0.65-2.786-0.187-5.649,0.471-8.436
	c0.02-0.521,0.048-1.037,0.075-1.563c0.652-1.457-0.155-3.075,0.482-4.534c-0.031-0.151-0.027-0.294,0.027-0.436
	c0.74-1.269-0.114-2.742,0.524-4.02c-0.039-0.146-0.024-0.284,0.024-0.422c0.737-1.05-0.105-2.355,0.545-3.417
	c-0.022-0.171-0.006-0.334,0.051-0.496c0.547-0.695-0.006-1.628,0.484-2.335c-0.006-0.919-0.075-1.855,0.378-2.709
	c2.235-12.28,6.258-23.983,11.473-35.283c8.205-17.759,19.285-33.525,33.341-47.109c24.695-23.887,54.05-38.509,88.064-43.714
	c7.037-1.071,14.099-1.6,21.173-1.691c0.87-0.017,1.741-0.037,2.619-0.041c0.879,0.003,1.749,0.023,2.62,0.041
	c7.07,0.087,14.135,0.616,21.172,1.69c34.014,5.204,63.367,19.828,88.066,43.713c14.059,13.586,25.136,29.352,33.34,47.111
	c5.214,11.299,9.241,23.003,11.476,35.283c0.458,0.854,0.382,1.79,0.382,2.709c0.479,0.708-0.069,1.64,0.472,2.335
	c0.061,0.162,0.085,0.325,0.061,0.496c0.647,1.066-0.191,2.367,0.537,3.417c0.053,0.138,0.064,0.276,0.029,0.422
	c0.634,1.286-0.209,2.75,0.528,4.02c0.048,0.147,0.053,0.285,0.021,0.436c0.646,1.468-0.167,3.078,0.484,4.534
	c0.023,0.526,0.048,1.041,0.076,1.567c0.656,2.782-0.178,5.646,0.473,8.432C352.863,196.075,352.863,198.313,352.712,200.542z
	 M223.716,247.895c2.018-13.616,10.901-60.33,14.245-77.918l1.143-6.004c0.26-1.416-0.082-2.879-0.956-4.036
	c-0.871-1.146-2.184-1.879-3.625-2.01l-89.95-7.976c-0.103-0.013-0.207-0.013-0.313-0.02c-0.044,0-0.095,0-0.14,0
	c-2.078,0-3.968,1.26-4.751,3.213c-0.84,2.098-0.206,4.499,1.56,5.907c4.932,3.929,8.467,7.322,12.211,10.917
	c1.793,1.717,3.622,3.474,5.627,5.305C85.347,239.298,58.547,309.59,76.068,338.918c0.096,0.156,0.2,0.313,0.309,0.455l7.418,9.814
	c0.084,0.109,0.218,0.273,0.311,0.371c10.808,12.162,11.458,12.883,18.738,19.273l1.456,1.236c0.922,0.785,2.05,1.195,3.184,1.23
	c0.044,0,0.089,0,0.136,0c1.322,0,2.645-0.502,3.641-1.52c1.887-1.896,1.991-4.943,0.229-6.953
	c-2.591-2.988-3.486-8.762-2.505-16.258c4.064-31.15,37.256-83.766,91.123-121.885c2.07,3.677,3.75,6.619,5.345,9.409
	c2.665,4.665,5.085,8.908,8.713,15.515c0.891,1.609,2.554,2.598,4.344,2.646c0.053,0.004,0.11,0.004,0.162,0.004
	c0.293,0,0.586-0.023,0.887-0.082C221.714,251.789,223.395,250.07,223.716,247.895z"/>
</svg>
